<svg xmlns="http://www.w3.org/2000/svg" viewBox="0 0 720 460" font-family="Inter, system-ui, sans-serif">
<rect width="720" height="460" fill="#0a0c12" rx="12"/>
<text x="70" y="28" fill="#e7eaf2" font-size="15" font-weight="600">Recall@10 vs QPS — 5000 vecs, 64d (cosine)</text>
<line x1="70" y1="50.0" x2="690" y2="50.0" stroke="#1e2433" stroke-width="1"/>
<text x="62" y="54.0" fill="#7c869b" font-size="11" text-anchor="end">1,376</text>
<line x1="70" y1="137.5" x2="690" y2="137.5" stroke="#1e2433" stroke-width="1"/>
<text x="62" y="141.5" fill="#7c869b" font-size="11" text-anchor="end">1,032</text>
<line x1="70" y1="225.0" x2="690" y2="225.0" stroke="#1e2433" stroke-width="1"/>
<text x="62" y="229.0" fill="#7c869b" font-size="11" text-anchor="end">688</text>
<line x1="70" y1="312.5" x2="690" y2="312.5" stroke="#1e2433" stroke-width="1"/>
<text x="62" y="316.5" fill="#7c869b" font-size="11" text-anchor="end">344</text>
<line x1="70" y1="400.0" x2="690" y2="400.0" stroke="#1e2433" stroke-width="1"/>
<text x="62" y="404.0" fill="#7c869b" font-size="11" text-anchor="end">0</text>
<text x="70.0" y="418.0" fill="#7c869b" font-size="11" text-anchor="middle">0.00</text>
<text x="194.0" y="418.0" fill="#7c869b" font-size="11" text-anchor="middle">0.20</text>
<text x="318.0" y="418.0" fill="#7c869b" font-size="11" text-anchor="middle">0.40</text>
<text x="442.0" y="418.0" fill="#7c869b" font-size="11" text-anchor="middle">0.60</text>
<text x="566.0" y="418.0" fill="#7c869b" font-size="11" text-anchor="middle">0.80</text>
<text x="690.0" y="418.0" fill="#7c869b" font-size="11" text-anchor="middle">1.00</text>
<text x="380" y="444" fill="#a8b0c0" font-size="12" text-anchor="middle">recall@10 (vs brute force)</text>
<text x="20" y="225" fill="#a8b0c0" font-size="12" text-anchor="middle" transform="rotate(-90 20 225)">queries / sec</text>
<polyline points="383.8,81.8 504.9,200.2 603.3,271.2 668.5,333.2 687.8,358.2 689.9,375.9" fill="none" stroke="#67e8f9" stroke-width="2"/>
<circle cx="383.8" cy="81.8" r="4.5" fill="#67e8f9"/>
<text x="383.8" y="71.8" fill="#e7eaf2" font-size="10" text-anchor="middle">ef=10</text>
<circle cx="504.9" cy="200.2" r="4.5" fill="#67e8f9"/>
<text x="504.9" y="190.2" fill="#e7eaf2" font-size="10" text-anchor="middle">ef=20</text>
<circle cx="603.3" cy="271.2" r="4.5" fill="#67e8f9"/>
<text x="603.3" y="261.2" fill="#e7eaf2" font-size="10" text-anchor="middle">ef=40</text>
<circle cx="668.5" cy="333.2" r="4.5" fill="#67e8f9"/>
<text x="668.5" y="323.2" fill="#e7eaf2" font-size="10" text-anchor="middle">ef=80</text>
<circle cx="687.8" cy="358.2" r="4.5" fill="#67e8f9"/>
<text x="687.8" y="348.2" fill="#e7eaf2" font-size="10" text-anchor="middle">ef=160</text>
<circle cx="689.9" cy="375.9" r="4.5" fill="#67e8f9"/>
<text x="689.9" y="365.9" fill="#e7eaf2" font-size="10" text-anchor="middle">ef=320</text>
</svg>